# xmcd
#
# Track frame offsets: 
#        150
#        20814
#        40948
#        61854
#        77620
#        96907
#        121977
#        139689
#        155575
#        181758
#        203443
#        218434
#
# Disc length: 3337 seconds
#
# Revision: 0
# Processed by: cddbd v1.5.2PL0 Copyright (c) Steve Scherf et al.
# Submitted via: ExactAudioCopy v0.95a5
#
DISCID=960d070c
DTITLE=Various Artist - Beginners Guide To African Blues CD2
DYEAR=2010
DGENRE=Blues
TTITLE0=Mahmoud Ahmed - Bemin Sebeb Letlash (Ethiopia)
TTITLE1=Muluqún Mèllèsè - Tènèsh Kèlbé Lay (Ethiopia)
TTITLE2=Mulatu Astalqè - Gubèlyé (My Gubel) (Ethiopia)
TTITLE3=Alèmu Aga - Selè Gènna (Ethiopia)
TTITLE4=Tlahoun Gèssèssè - Sema (Ethiopia)
TTITLE5=Alemayuhe Eshete - Teredtchewalehu (Ethiopia)
TTITLE6=Dub Colossus - Shegye Shegitu (Blue Nile Mix) (Ethiopia-UK)
TTITLE7=Malouma - Mnew (Mauritania)
TTITLE8=Hasna El Becheria - Hakmet Lakdar (Algeria)
TTITLE9=Terakalt - Tenere Wer Tat Zinchegh (Mali)
TTITLE10=Tamikrest - Aicha (Mali)
TTITLE11=Touareq De Fewet - Tassilé (Libya)
EXTD=
EXTT0=
EXTT1=
EXTT2=
EXTT3=
EXTT4=
EXTT5=
EXTT6=
EXTT7=
EXTT8=
EXTT9=
EXTT10=
EXTT11=
PLAYORDER=
